<?xml version="1.0" encoding="utf-8"?>
<!-- Generator: Adobe Illustrator 23.0.0, SVG Export Plug-In . SVG Version: 6.00 Build 0)  -->
<svg version="1.1" xmlns="http://www.w3.org/2000/svg" xmlns:xlink="http://www.w3.org/1999/xlink" x="0px" y="0px"
	 viewBox="0 0 1910 1243" style="enable-background:new 0 0 1910 1243;" xml:space="preserve">
<style type="text/css">
	.st0{fill:none;stroke:#839B92;stroke-width:2;stroke-linecap:round;stroke-linejoin:round;stroke-miterlimit:10;}
	.st1{fill:none;stroke:#434F4A;stroke-width:2;stroke-linecap:round;stroke-linejoin:round;stroke-miterlimit:10;}
	.st2{fill:none;stroke:#035AA6;stroke-width:8;stroke-miterlimit:10;}
</style>
<g id="圖層_2">
	<rect x="30.4" y="62.5" class="st0" width="254.1" height="380.6"/>
	<rect x="283.4" y="62.5" class="st0" width="254.1" height="380.6"/>
	<rect x="633.7" y="62.5" class="st0" width="254.1" height="380.6"/>
	<rect x="887.8" y="62.5" class="st0" width="254.1" height="380.6"/>
	<rect x="1237" y="62.5" class="st0" width="254.1" height="380.6"/>
	<rect x="1584" y="108.4" class="st1" width="194.8" height="285.4"/>
	<rect x="1778.8" y="125.2" class="st1" width="92.9" height="92.9"/>
	<rect x="1491.1" y="127.4" class="st1" width="92.9" height="92.9"/>
	<rect x="1778.8" y="284.1" class="st1" width="92.9" height="153.3"/>
	<rect x="1491.1" y="280.8" class="st1" width="92.9" height="153.3"/>
	<rect x="29.3" y="824.8" class="st0" width="254.1" height="380.6"/>
	<rect x="282.3" y="824.8" class="st0" width="254.1" height="380.6"/>
	<rect x="632.6" y="824.8" class="st0" width="254.1" height="380.6"/>
	<rect x="886.7" y="824.8" class="st0" width="254.1" height="380.6"/>
	<rect x="1235.9" y="824.8" class="st0" width="254.1" height="380.6"/>
	<rect x="1584" y="874" class="st1" width="194.8" height="285.4"/>
	<rect x="1778.8" y="1049.8" class="st1" width="92.9" height="92.9"/>
	<rect x="1491.1" y="1047.5" class="st1" width="92.9" height="92.9"/>
	<rect x="1778.8" y="830.4" class="st1" width="92.9" height="153.3"/>
	<rect x="1491.1" y="833.7" class="st1" width="92.9" height="153.3"/>
</g>
<g id="圖層_6">
	<rect x="539.1" y="63.1" class="st2" width="95.1" height="380.6"/>
	<rect x="1141.3" y="59.7" class="st2" width="95.1" height="380.6"/>
	<rect x="538" y="825.3" class="st2" width="95.1" height="380.6"/>
	<rect x="1140.2" y="822" class="st2" width="95.1" height="380.6"/>
</g>
</svg>
