<?xml version="1.0" encoding="utf-8"?>
<!-- Generator: Adobe Illustrator 23.0.0, SVG Export Plug-In . SVG Version: 6.00 Build 0)  -->
<svg xmlns="http://www.w3.org/2000/svg" x="0px" y="0px" viewBox="0 0 2862 1984">


	<g>
		<path class="marker-red" d="M659.6,393.8h-0.1c-15,0-27.3,12.2-27.3,27.3c0,9.9,4.5,22.9,13.3,38.7c6.6,11.7,13.2,20.7,13.3,20.8
			c0.2,0.2,0.5,0.4,0.8,0.4c0,0,0,0,0,0c0.3,0,0.6-0.2,0.8-0.4c0.1-0.1,6.7-10.1,13.2-22.3c8.8-16.5,13.3-29,13.3-37.1
			C686.8,406.1,674.6,393.8,659.6,393.8z M672.2,421.8c0,7-5.7,12.7-12.7,12.7c-7,0-12.7-5.7-12.7-12.7s5.7-12.7,12.7-12.7
			C666.5,409.1,672.2,414.8,672.2,421.8z"/>
	</g>
	<g>
		<path class="marker-red" d="M270.6,113.5h-0.1c-15,0-27.3,12.2-27.3,27.3c0,9.9,4.5,22.9,13.3,38.7c6.6,11.7,13.2,20.7,13.3,20.8
			c0.2,0.2,0.5,0.4,0.8,0.4c0,0,0,0,0,0c0.3,0,0.6-0.2,0.8-0.4c0.1-0.1,6.7-10.1,13.2-22.3c8.8-16.5,13.3-29,13.3-37.1
			C297.8,125.8,285.6,113.5,270.6,113.5z M283.2,141.5c0,7-5.7,12.7-12.7,12.7c-7,0-12.7-5.7-12.7-12.7s5.7-12.7,12.7-12.7
			C277.5,128.8,283.2,134.5,283.2,141.5z"/>
	</g>
	<g>
		<path class="marker-red" d="M257.1,934.4h-0.1c-15,0-27.3,12.2-27.3,27.3c0,9.9,4.5,22.9,13.3,38.7c6.6,11.7,13.2,20.7,13.3,20.8
			c0.2,0.2,0.5,0.4,0.8,0.4c0,0,0,0,0,0c0.3,0,0.6-0.2,0.8-0.4c0.1-0.1,6.7-10.1,13.2-22.3c8.8-16.5,13.3-29,13.3-37.1
			C284.3,946.6,272.1,934.4,257.1,934.4z M269.7,962.3c0,7-5.7,12.7-12.7,12.7c-7,0-12.7-5.7-12.7-12.7s5.7-12.7,12.7-12.7
			C264,949.7,269.7,955.4,269.7,962.3z"/>
	</g>
	<g>
		<path class="marker-red" d="M1197.1,393.8h-0.1c-15,0-27.3,12.2-27.3,27.3c0,9.9,4.5,22.9,13.3,38.7c6.6,11.7,13.2,20.7,13.3,20.8
			c0.2,0.2,0.5,0.4,0.8,0.4c0,0,0,0,0,0c0.3,0,0.6-0.2,0.8-0.4c0.1-0.1,6.7-10.1,13.2-22.3c8.8-16.5,13.3-29,13.3-37.1
			C1224.4,406.1,1212.1,393.8,1197.1,393.8z M1209.7,421.8c0,7-5.7,12.7-12.7,12.7c-7,0-12.7-5.7-12.7-12.7s5.7-12.7,12.7-12.7
			C1204,409.1,1209.7,414.8,1209.7,421.8z"/>
	</g>
	<g>
		<path class="marker-red" d="M941.6,113.5h-0.1c-15,0-27.3,12.2-27.3,27.3c0,9.9,4.5,22.9,13.3,38.7c6.6,11.7,13.2,20.7,13.3,20.8
			c0.2,0.2,0.5,0.4,0.8,0.4c0,0,0,0,0,0c0.3,0,0.6-0.2,0.8-0.4c0.1-0.1,6.7-10.1,13.2-22.3c8.8-16.5,13.3-29,13.3-37.1
			C968.9,125.8,956.7,113.5,941.6,113.5z M954.2,141.5c0,7-5.7,12.7-12.7,12.7c-7,0-12.7-5.7-12.7-12.7s5.7-12.7,12.7-12.7
			C948.6,128.8,954.2,134.5,954.2,141.5z"/>
	</g>
	<g>
		<path class="marker-red" d="M894.5,393.8h-0.1c-15,0-27.3,12.2-27.3,27.3c0,9.9,4.5,22.9,13.3,38.7c6.6,11.7,13.2,20.7,13.3,20.8
			c0.2,0.2,0.5,0.4,0.8,0.4c0,0,0,0,0,0c0.3,0,0.6-0.2,0.8-0.4c0.1-0.1,6.7-10.1,13.2-22.3c8.8-16.5,13.3-29,13.3-37.1
			C921.8,406.1,909.6,393.8,894.5,393.8z M907.1,421.8c0,7-5.7,12.7-12.7,12.7c-7,0-12.7-5.7-12.7-12.7s5.7-12.7,12.7-12.7
			C901.5,409.1,907.1,414.8,907.1,421.8z"/>
	</g>
	<g>
		<path class="marker-red" d="M1432.1,393.8h-0.1c-15,0-27.3,12.2-27.3,27.3c0,9.9,4.5,22.9,13.3,38.7c6.6,11.7,13.2,20.7,13.3,20.8
			c0.2,0.2,0.5,0.4,0.8,0.4c0,0,0,0,0,0c0.3,0,0.6-0.2,0.8-0.4c0.1-0.1,6.7-10.1,13.2-22.3c8.8-16.5,13.3-29,13.3-37.1
			C1459.3,406.1,1447.1,393.8,1432.1,393.8z M1444.6,421.8c0,7-5.7,12.7-12.7,12.7c-7,0-12.7-5.7-12.7-12.7s5.7-12.7,12.7-12.7
			C1439,409.1,1444.6,414.8,1444.6,421.8z"/>
	</g>
	<g>
		<path class="marker-red" d="M1314.6,113.5h-0.1c-15,0-27.3,12.2-27.3,27.3c0,9.9,4.5,22.9,13.3,38.7c6.6,11.7,13.2,20.7,13.3,20.8
			c0.2,0.2,0.5,0.4,0.8,0.4c0,0,0,0,0,0c0.3,0,0.6-0.2,0.8-0.4c0.1-0.1,6.7-10.1,13.2-22.3c8.8-16.5,13.3-29,13.3-37.1
			C1341.8,125.8,1329.6,113.5,1314.6,113.5z M1327.2,141.5c0,7-5.7,12.7-12.7,12.7c-7,0-12.7-5.7-12.7-12.7s5.7-12.7,12.7-12.7
			C1321.5,128.8,1327.2,134.5,1327.2,141.5z"/>
	</g>
	<g>
		<path class="marker-red" d="M1493.8,36.4h-0.1c-15,0-27.3,12.2-27.3,27.3c0,9.9,4.5,22.9,13.3,38.7c6.6,11.7,13.2,20.7,13.3,20.8
			c0.2,0.2,0.5,0.4,0.8,0.4c0,0,0,0,0,0c0.3,0,0.6-0.2,0.8-0.4c0.1-0.1,6.7-10.1,13.2-22.3c8.8-16.5,13.3-29,13.3-37.1
			C1521.1,48.7,1508.9,36.4,1493.8,36.4z M1506.4,64.4c0,7-5.7,12.7-12.7,12.7c-7,0-12.7-5.7-12.7-12.7s5.7-12.7,12.7-12.7
			C1500.8,51.7,1506.4,57.4,1506.4,64.4z"/>
	</g>
	<g>
		<path class="marker-red" d="M2301.7,113.5h-0.1c-15,0-27.3,12.2-27.3,27.3c0,9.9,4.5,22.9,13.3,38.7c6.6,11.7,13.2,20.7,13.3,20.8
			c0.2,0.2,0.5,0.4,0.8,0.4c0,0,0,0,0,0c0.3,0,0.6-0.2,0.8-0.4c0.1-0.1,6.7-10.1,13.2-22.3c8.8-16.5,13.3-29,13.3-37.1
			C2329,125.8,2316.7,113.5,2301.7,113.5z M2314.3,141.5c0,7-5.7,12.7-12.7,12.7c-7,0-12.7-5.7-12.7-12.7s5.7-12.7,12.7-12.7
			C2308.6,128.8,2314.3,134.5,2314.3,141.5z"/>
	</g>
	<g>
		<path class="marker-red" d="M2289,1773.1h-0.1c-15,0-27.3,12.2-27.3,27.3c0,9.9,4.5,22.9,13.3,38.7c6.6,11.7,13.2,20.7,13.3,20.8
			c0.2,0.2,0.5,0.4,0.8,0.4c0,0,0,0,0,0c0.3,0,0.6-0.2,0.8-0.4c0.1-0.1,6.7-10.1,13.2-22.3c8.8-16.5,13.3-29,13.3-37.1
			C2316.3,1785.4,2304.1,1773.1,2289,1773.1z M2301.6,1801.1c0,7-5.7,12.7-12.7,12.7s-12.7-5.7-12.7-12.7c0-7,5.7-12.7,12.7-12.7
			S2301.6,1794.1,2301.6,1801.1z"/>
	</g>
	<g>
		<path class="marker-red" d="M2211.5,1846.4h-0.1c-15,0-27.3,12.2-27.3,27.3c0,9.9,4.5,22.9,13.3,38.7c6.6,11.7,13.2,20.7,13.3,20.8
			c0.2,0.2,0.5,0.4,0.8,0.4c0,0,0,0,0,0c0.3,0,0.6-0.2,0.8-0.4c0.1-0.1,6.7-10.1,13.2-22.3c8.8-16.5,13.3-29,13.3-37.1
			C2238.8,1858.7,2226.6,1846.4,2211.5,1846.4z M2224.1,1874.4c0,7-5.7,12.7-12.7,12.7s-12.7-5.7-12.7-12.7c0-7,5.7-12.7,12.7-12.7
			S2224.1,1867.4,2224.1,1874.4z"/>
	</g>
	<g>
		<path class="marker-red" d="M2634.1,1615.4h-0.1c-15,0-27.3,12.2-27.3,27.3c0,9.9,4.5,22.9,13.3,38.7c6.6,11.7,13.2,20.7,13.3,20.8
			c0.2,0.2,0.5,0.4,0.8,0.4c0,0,0,0,0,0c0.3,0,0.6-0.2,0.8-0.4c0.1-0.1,6.7-10.1,13.2-22.3c8.8-16.5,13.3-29,13.3-37.1
			C2661.4,1627.6,2649.2,1615.4,2634.1,1615.4z M2646.7,1643.3c0,7-5.7,12.7-12.7,12.7s-12.7-5.7-12.7-12.7c0-7,5.7-12.7,12.7-12.7
			C2641.1,1630.7,2646.7,1636.4,2646.7,1643.3z"/>
	</g>
	<g>
		<path class="marker-red" d="M1327.2,1773.1h-0.1c-15,0-27.3,12.2-27.3,27.3c0,9.9,4.5,22.9,13.3,38.7c6.6,11.7,13.2,20.7,13.3,20.8
			c0.2,0.2,0.5,0.4,0.8,0.4c0,0,0,0,0,0c0.3,0,0.6-0.2,0.8-0.4c0.1-0.1,6.7-10.1,13.2-22.3c8.8-16.5,13.3-29,13.3-37.1
			C1354.5,1785.4,1342.3,1773.1,1327.2,1773.1z M1339.8,1801.1c0,7-5.7,12.7-12.7,12.7c-7,0-12.7-5.7-12.7-12.7
			c0-7,5.7-12.7,12.7-12.7C1334.1,1788.4,1339.8,1794.1,1339.8,1801.1z"/>
	</g>
	<g>
		<path class="marker-red" d="M390.1,1773.1h-0.1c-15,0-27.3,12.2-27.3,27.3c0,9.9,4.5,22.9,13.3,38.7c6.6,11.7,13.2,20.7,13.3,20.8
			c0.2,0.2,0.5,0.4,0.8,0.4c0,0,0,0,0,0c0.3,0,0.6-0.2,0.8-0.4c0.1-0.1,6.7-10.1,13.2-22.3c8.8-16.5,13.3-29,13.3-37.1
			C417.3,1785.4,405.1,1773.1,390.1,1773.1z M402.7,1801.1c0,7-5.7,12.7-12.7,12.7c-7,0-12.7-5.7-12.7-12.7c0-7,5.7-12.7,12.7-12.7
			C397,1788.4,402.7,1794.1,402.7,1801.1z"/>
	</g>
	<g>
		<path class="marker-red" d="M1741.1,393.8h-0.1c-15,0-27.3,12.2-27.3,27.3c0,9.9,4.5,22.9,13.3,38.7c6.6,11.7,13.2,20.7,13.3,20.8
			c0.2,0.2,0.5,0.4,0.8,0.4c0,0,0,0,0,0c0.3,0,0.6-0.2,0.8-0.4c0.1-0.1,6.7-10.1,13.2-22.3c8.8-16.5,13.3-29,13.3-37.1
			C1768.3,406.1,1756.1,393.8,1741.1,393.8z M1753.7,421.8c0,7-5.7,12.7-12.7,12.7c-7,0-12.7-5.7-12.7-12.7s5.7-12.7,12.7-12.7
			C1748,409.1,1753.7,414.8,1753.7,421.8z"/>
	</g>
	<g>
		<path class="marker-red" d="M661.3,743.9h-0.1c-15,0-27.3,12.2-27.3,27.3c0,9.9,4.5,22.9,13.3,38.7c6.6,11.7,13.2,20.7,13.3,20.8
			c0.2,0.2,0.5,0.4,0.8,0.4c0,0,0,0,0,0c0.3,0,0.6-0.2,0.8-0.4c0.1-0.1,6.7-10.1,13.2-22.3c8.8-16.5,13.3-29,13.3-37.1
			C688.6,756.2,676.4,743.9,661.3,743.9z M673.9,771.9c0,7-5.7,12.7-12.7,12.7c-7,0-12.7-5.7-12.7-12.7s5.7-12.7,12.7-12.7
			C668.2,759.2,673.9,764.9,673.9,771.9z"/>
	</g>
	<g>
		<path class="marker-red" d="M659.6,634.9h-0.1c-15,0-27.3,12.2-27.3,27.3c0,9.9,4.5,22.9,13.3,38.7c6.6,11.7,13.2,20.7,13.3,20.8
			c0.2,0.2,0.5,0.4,0.8,0.4c0,0,0,0,0,0c0.3,0,0.6-0.2,0.8-0.4c0.1-0.1,6.7-10.1,13.2-22.3c8.8-16.5,13.3-29,13.3-37.1
			C686.8,647.1,674.6,634.9,659.6,634.9z M672.2,662.8c0,7-5.7,12.7-12.7,12.7c-7,0-12.7-5.7-12.7-12.7s5.7-12.7,12.7-12.7
			C666.5,650.2,672.2,655.8,672.2,662.8z"/>
	</g>
	<g>
		<path class="marker-red" d="M659.6,511.4h-0.1c-15,0-27.3,12.2-27.3,27.3c0,9.9,4.5,22.9,13.3,38.7c6.6,11.7,13.2,20.7,13.3,20.8
			c0.2,0.2,0.5,0.4,0.8,0.4c0,0,0,0,0,0c0.3,0,0.6-0.2,0.8-0.4c0.1-0.1,6.7-10.1,13.2-22.3c8.8-16.5,13.3-29,13.3-37.1
			C686.8,523.7,674.6,511.4,659.6,511.4z M672.2,539.4c0,7-5.7,12.7-12.7,12.7c-7,0-12.7-5.7-12.7-12.7s5.7-12.7,12.7-12.7
			C666.5,526.7,672.2,532.4,672.2,539.4z"/>
	</g>
	<g>
		<path class="marker-red" d="M1198.8,743.9h-0.1c-15,0-27.3,12.2-27.3,27.3c0,9.9,4.5,22.9,13.3,38.7c6.6,11.7,13.2,20.7,13.3,20.8
			c0.2,0.2,0.5,0.4,0.8,0.4c0,0,0,0,0,0c0.3,0,0.6-0.2,0.8-0.4c0.1-0.1,6.7-10.1,13.2-22.3c8.8-16.5,13.3-29,13.3-37.1
			C1226.1,756.2,1213.9,743.9,1198.8,743.9z M1211.4,771.9c0,7-5.7,12.7-12.7,12.7c-7,0-12.7-5.7-12.7-12.7s5.7-12.7,12.7-12.7
			C1205.7,759.2,1211.4,764.9,1211.4,771.9z"/>
	</g>
	<g>
		<path class="marker-red" d="M896.3,743.9h-0.1c-15,0-27.3,12.2-27.3,27.3c0,9.9,4.5,22.9,13.3,38.7c6.6,11.7,13.2,20.7,13.3,20.8
			c0.2,0.2,0.5,0.4,0.8,0.4c0,0,0,0,0,0c0.3,0,0.6-0.2,0.8-0.4c0.1-0.1,6.7-10.1,13.2-22.3c8.8-16.5,13.3-29,13.3-37.1
			C923.6,756.2,911.3,743.9,896.3,743.9z M908.9,771.9c0,7-5.7,12.7-12.7,12.7c-7,0-12.7-5.7-12.7-12.7s5.7-12.7,12.7-12.7
			C903.2,759.2,908.9,764.9,908.9,771.9z"/>
	</g>
	<g>
		<path class="marker-red" d="M1046.6,566.4h-0.1c-15,0-27.3,12.2-27.3,27.3c0,9.9,4.5,22.9,13.3,38.7c6.6,11.7,13.2,20.7,13.3,20.8
			c0.2,0.2,0.5,0.4,0.8,0.4c0,0,0,0,0,0c0.3,0,0.6-0.2,0.8-0.4c0.1-0.1,6.7-10.1,13.2-22.3c8.8-16.5,13.3-29,13.3-37.1
			C1073.8,578.6,1061.6,566.4,1046.6,566.4z M1059.2,594.3c0,7-5.7,12.7-12.7,12.7c-7,0-12.7-5.7-12.7-12.7s5.7-12.7,12.7-12.7
			C1053.5,581.7,1059.2,587.3,1059.2,594.3z"/>
	</g>
	<g>
		<path class="marker-red" d="M1584.6,566.4h-0.1c-15,0-27.3,12.2-27.3,27.3c0,9.9,4.5,22.9,13.3,38.7c6.6,11.7,13.2,20.7,13.3,20.8
			c0.2,0.2,0.5,0.4,0.8,0.4c0,0,0,0,0,0c0.3,0,0.6-0.2,0.8-0.4c0.1-0.1,6.7-10.1,13.2-22.3c8.8-16.5,13.3-29,13.3-37.1
			C1611.8,578.6,1599.6,566.4,1584.6,566.4z M1597.2,594.3c0,7-5.7,12.7-12.7,12.7c-7,0-12.7-5.7-12.7-12.7s5.7-12.7,12.7-12.7
			C1591.5,581.7,1597.2,587.3,1597.2,594.3z"/>
	</g>
	<g>
		<path class="marker-red" d="M1433.8,743.9h-0.1c-15,0-27.3,12.2-27.3,27.3c0,9.9,4.5,22.9,13.3,38.7c6.6,11.7,13.2,20.7,13.3,20.8
			c0.2,0.2,0.5,0.4,0.8,0.4c0,0,0,0,0,0c0.3,0,0.6-0.2,0.8-0.4c0.1-0.1,6.7-10.1,13.2-22.3c8.8-16.5,13.3-29,13.3-37.1
			C1461.1,756.2,1448.8,743.9,1433.8,743.9z M1446.4,771.9c0,7-5.7,12.7-12.7,12.7c-7,0-12.7-5.7-12.7-12.7s5.7-12.7,12.7-12.7
			C1440.7,759.2,1446.4,764.9,1446.4,771.9z"/>
	</g>
	<g>
		<path class="marker-red" d="M1742.8,743.9h-0.1c-15,0-27.3,12.2-27.3,27.3c0,9.9,4.5,22.9,13.3,38.7c6.6,11.7,13.2,20.7,13.3,20.8
			c0.2,0.2,0.5,0.4,0.8,0.4c0,0,0,0,0,0c0.3,0,0.6-0.2,0.8-0.4c0.1-0.1,6.7-10.1,13.2-22.3c8.8-16.5,13.3-29,13.3-37.1
			C1770.1,756.2,1757.9,743.9,1742.8,743.9z M1755.4,771.9c0,7-5.7,12.7-12.7,12.7c-7,0-12.7-5.7-12.7-12.7s5.7-12.7,12.7-12.7
			C1749.7,759.2,1755.4,764.9,1755.4,771.9z"/>
	</g>
	<g>
		<path class="marker-red" d="M2024.6,452.9h-0.1c-15,0-27.3,12.2-27.3,27.3c0,9.9,4.5,22.9,13.3,38.7c6.6,11.7,13.2,20.7,13.3,20.8
			c0.2,0.2,0.5,0.4,0.8,0.4c0,0,0,0,0,0c0.3,0,0.6-0.2,0.8-0.4c0.1-0.1,6.7-10.1,13.2-22.3c8.8-16.5,13.3-29,13.3-37.1
			C2051.8,465.2,2039.6,452.9,2024.6,452.9z M2037.2,480.9c0,7-5.7,12.7-12.7,12.7c-7,0-12.7-5.7-12.7-12.7s5.7-12.7,12.7-12.7
			C2031.5,468.2,2037.2,473.9,2037.2,480.9z"/>
	</g>
	<g>
		<path class="marker-red" d="M2025.4,716.1h-0.1c-15,0-27.3,12.2-27.3,27.3c0,9.9,4.5,22.9,13.3,38.7c6.6,11.7,13.2,20.7,13.3,20.8
			c0.2,0.2,0.5,0.4,0.8,0.4c0,0,0,0,0,0c0.3,0,0.6-0.2,0.8-0.4c0.1-0.1,6.7-10.1,13.2-22.3c8.8-16.5,13.3-29,13.3-37.1
			C2052.7,728.4,2040.5,716.1,2025.4,716.1z M2038,744.1c0,7-5.7,12.7-12.7,12.7c-7,0-12.7-5.7-12.7-12.7s5.7-12.7,12.7-12.7
			C2032.4,731.4,2038,737.1,2038,744.1z"/>
	</g>
	<g>
		<path class="marker-red" d="M664.9,1073.9h-0.1c-15,0-27.3,12.2-27.3,27.3c0,9.9,4.5,22.9,13.3,38.7c6.6,11.7,13.2,20.7,13.3,20.8
			c0.2,0.2,0.5,0.4,0.8,0.4c0,0,0,0,0,0c0.3,0,0.6-0.2,0.8-0.4c0.1-0.1,6.7-10.1,13.2-22.3c8.8-16.5,13.3-29,13.3-37.1
			C692.2,1086.1,680,1073.9,664.9,1073.9z M677.5,1101.8c0,7-5.7,12.7-12.7,12.7c-7,0-12.7-5.7-12.7-12.7c0-7,5.7-12.7,12.7-12.7
			C671.8,1089.2,677.5,1094.8,677.5,1101.8z"/>
	</g>
	<g>
		<path class="marker-red" d="M1202.4,1073.9h-0.1c-15,0-27.3,12.2-27.3,27.3c0,9.9,4.5,22.9,13.3,38.7c6.6,11.7,13.2,20.7,13.3,20.8
			c0.2,0.2,0.5,0.4,0.8,0.4c0,0,0,0,0,0c0.3,0,0.6-0.2,0.8-0.4c0.1-0.1,6.7-10.1,13.2-22.3c8.8-16.5,13.3-29,13.3-37.1
			C1229.7,1086.1,1217.5,1073.9,1202.4,1073.9z M1215,1101.8c0,7-5.7,12.7-12.7,12.7c-7,0-12.7-5.7-12.7-12.7
			c0-7,5.7-12.7,12.7-12.7C1209.3,1089.2,1215,1094.8,1215,1101.8z"/>
	</g>
	<g>
		<path class="marker-red" d="M899.9,1073.9h-0.1c-15,0-27.3,12.2-27.3,27.3c0,9.9,4.5,22.9,13.3,38.7c6.6,11.7,13.2,20.7,13.3,20.8
			c0.2,0.2,0.5,0.4,0.8,0.4c0,0,0,0,0,0c0.3,0,0.6-0.2,0.8-0.4c0.1-0.1,6.7-10.1,13.2-22.3c8.8-16.5,13.3-29,13.3-37.1
			C927.2,1086.1,914.9,1073.9,899.9,1073.9z M912.5,1101.8c0,7-5.7,12.7-12.7,12.7c-7,0-12.7-5.7-12.7-12.7c0-7,5.7-12.7,12.7-12.7
			C906.8,1089.2,912.5,1094.8,912.5,1101.8z"/>
	</g>
	<g>
		<path class="marker-red" d="M1437.4,1073.9h-0.1c-15,0-27.3,12.2-27.3,27.3c0,9.9,4.5,22.9,13.3,38.7c6.6,11.7,13.2,20.7,13.3,20.8
			c0.2,0.2,0.5,0.4,0.8,0.4c0,0,0,0,0,0c0.3,0,0.6-0.2,0.8-0.4c0.1-0.1,6.7-10.1,13.2-22.3c8.8-16.5,13.3-29,13.3-37.1
			C1464.7,1086.1,1452.4,1073.9,1437.4,1073.9z M1450,1101.8c0,7-5.7,12.7-12.7,12.7c-7,0-12.7-5.7-12.7-12.7
			c0-7,5.7-12.7,12.7-12.7C1444.3,1089.2,1450,1094.8,1450,1101.8z"/>
	</g>
	<g>
		<path class="marker-red" d="M1746.4,1073.9h-0.1c-15,0-27.3,12.2-27.3,27.3c0,9.9,4.5,22.9,13.3,38.7c6.6,11.7,13.2,20.7,13.3,20.8
			c0.2,0.2,0.5,0.4,0.8,0.4c0,0,0,0,0,0c0.3,0,0.6-0.2,0.8-0.4c0.1-0.1,6.7-10.1,13.2-22.3c8.8-16.5,13.3-29,13.3-37.1
			C1773.7,1086.1,1761.5,1073.9,1746.4,1073.9z M1759,1101.8c0,7-5.7,12.7-12.7,12.7c-7,0-12.7-5.7-12.7-12.7
			c0-7,5.7-12.7,12.7-12.7C1753.3,1089.2,1759,1094.8,1759,1101.8z"/>
	</g>
	<g>
		<path class="marker-red" d="M666.7,1424h-0.1c-15,0-27.3,12.2-27.3,27.3c0,9.9,4.5,22.9,13.3,38.7c6.6,11.7,13.2,20.7,13.3,20.8
			c0.2,0.2,0.5,0.4,0.8,0.4c0,0,0,0,0,0c0.3,0,0.6-0.2,0.8-0.4c0.1-0.1,6.7-10.1,13.2-22.3c8.8-16.5,13.3-29,13.3-37.1
			C693.9,1436.2,681.7,1424,666.7,1424z M679.3,1451.9c0,7-5.7,12.7-12.7,12.7c-7,0-12.7-5.7-12.7-12.7c0-7,5.7-12.7,12.7-12.7
			C673.6,1439.3,679.3,1445,679.3,1451.9z"/>
	</g>
	<g>
		<path class="marker-red" d="M664.9,1314.9h-0.1c-15,0-27.3,12.2-27.3,27.3c0,9.9,4.5,22.9,13.3,38.7c6.6,11.7,13.2,20.7,13.3,20.8
			c0.2,0.2,0.5,0.4,0.8,0.4c0,0,0,0,0,0c0.3,0,0.6-0.2,0.8-0.4c0.1-0.1,6.7-10.1,13.2-22.3c8.8-16.5,13.3-29,13.3-37.1
			C692.2,1327.2,680,1314.9,664.9,1314.9z M677.5,1342.9c0,7-5.7,12.7-12.7,12.7c-7,0-12.7-5.7-12.7-12.7c0-7,5.7-12.7,12.7-12.7
			C671.8,1330.2,677.5,1335.9,677.5,1342.9z"/>
	</g>
	<g>
		<path class="marker-red" d="M664.9,1191.5h-0.1c-15,0-27.3,12.2-27.3,27.3c0,9.9,4.5,22.9,13.3,38.7c6.6,11.7,13.2,20.7,13.3,20.8
			c0.2,0.2,0.5,0.4,0.8,0.4c0,0,0,0,0,0c0.3,0,0.6-0.2,0.8-0.4c0.1-0.1,6.7-10.1,13.2-22.3c8.8-16.5,13.3-29,13.3-37.1
			C692.2,1203.7,680,1191.5,664.9,1191.5z M677.5,1219.4c0,7-5.7,12.7-12.7,12.7c-7,0-12.7-5.7-12.7-12.7c0-7,5.7-12.7,12.7-12.7
			C671.8,1206.8,677.5,1212.5,677.5,1219.4z"/>
	</g>
	<g>
		<path class="marker-red" d="M1204.2,1424h-0.1c-15,0-27.3,12.2-27.3,27.3c0,9.9,4.5,22.9,13.3,38.7c6.6,11.7,13.2,20.7,13.3,20.8
			c0.2,0.2,0.5,0.4,0.8,0.4c0,0,0,0,0,0c0.3,0,0.6-0.2,0.8-0.4c0.1-0.1,6.7-10.1,13.2-22.3c8.8-16.5,13.3-29,13.3-37.1
			C1231.5,1436.2,1219.2,1424,1204.2,1424z M1216.8,1451.9c0,7-5.7,12.7-12.7,12.7c-7,0-12.7-5.7-12.7-12.7c0-7,5.7-12.7,12.7-12.7
			C1211.1,1439.3,1216.8,1445,1216.8,1451.9z"/>
	</g>
	<g>
		<path class="marker-red" d="M901.6,1424h-0.1c-15,0-27.3,12.2-27.3,27.3c0,9.9,4.5,22.9,13.3,38.7c6.6,11.7,13.2,20.7,13.3,20.8
			c0.2,0.2,0.5,0.4,0.8,0.4c0,0,0,0,0,0c0.3,0,0.6-0.2,0.8-0.4c0.1-0.1,6.7-10.1,13.2-22.3c8.8-16.5,13.3-29,13.3-37.1
			C928.9,1436.2,916.7,1424,901.6,1424z M914.2,1451.9c0,7-5.7,12.7-12.7,12.7c-7,0-12.7-5.7-12.7-12.7c0-7,5.7-12.7,12.7-12.7
			C908.6,1439.3,914.2,1445,914.2,1451.9z"/>
	</g>
	<g>
		<path class="marker-red" d="M1051.9,1246.4h-0.1c-15,0-27.3,12.2-27.3,27.3c0,9.9,4.5,22.9,13.3,38.7c6.6,11.7,13.2,20.7,13.3,20.8
			c0.2,0.2,0.5,0.4,0.8,0.4c0,0,0,0,0,0c0.3,0,0.6-0.2,0.8-0.4c0.1-0.1,6.7-10.1,13.2-22.3c8.8-16.5,13.3-29,13.3-37.1
			C1079.2,1258.7,1067,1246.4,1051.9,1246.4z M1064.5,1274.4c0,7-5.7,12.7-12.7,12.7c-7,0-12.7-5.7-12.7-12.7
			c0-7,5.7-12.7,12.7-12.7C1058.8,1261.7,1064.5,1267.4,1064.5,1274.4z"/>
	</g>
	<g>
		<path class="marker-red" d="M1589.9,1246.4h-0.1c-15,0-27.3,12.2-27.3,27.3c0,9.9,4.5,22.9,13.3,38.7c6.6,11.7,13.2,20.7,13.3,20.8
			c0.2,0.2,0.5,0.4,0.8,0.4c0,0,0,0,0,0c0.3,0,0.6-0.2,0.8-0.4c0.1-0.1,6.7-10.1,13.2-22.3c8.8-16.5,13.3-29,13.3-37.1
			C1617.2,1258.7,1605,1246.4,1589.9,1246.4z M1602.5,1274.4c0,7-5.7,12.7-12.7,12.7c-7,0-12.7-5.7-12.7-12.7
			c0-7,5.7-12.7,12.7-12.7C1596.8,1261.7,1602.5,1267.4,1602.5,1274.4z"/>
	</g>
	<g>
		<path class="marker-red" d="M1439.1,1424h-0.1c-15,0-27.3,12.2-27.3,27.3c0,9.9,4.5,22.9,13.3,38.7c6.6,11.7,13.2,20.7,13.3,20.8
			c0.2,0.2,0.5,0.4,0.8,0.4c0,0,0,0,0,0c0.3,0,0.6-0.2,0.8-0.4c0.1-0.1,6.7-10.1,13.2-22.3c8.8-16.5,13.3-29,13.3-37.1
			C1466.4,1436.2,1454.2,1424,1439.1,1424z M1451.7,1451.9c0,7-5.7,12.7-12.7,12.7c-7,0-12.7-5.7-12.7-12.7c0-7,5.7-12.7,12.7-12.7
			C1446.1,1439.3,1451.7,1445,1451.7,1451.9z"/>
	</g>
	<g>
		<path class="marker-red" d="M1748.2,1424h-0.1c-15,0-27.3,12.2-27.3,27.3c0,9.9,4.5,22.9,13.3,38.7c6.6,11.7,13.2,20.7,13.3,20.8
			c0.2,0.2,0.5,0.4,0.8,0.4c0,0,0,0,0,0c0.3,0,0.6-0.2,0.8-0.4c0.1-0.1,6.7-10.1,13.2-22.3c8.8-16.5,13.3-29,13.3-37.1
			C1775.4,1436.2,1763.2,1424,1748.2,1424z M1760.8,1451.9c0,7-5.7,12.7-12.7,12.7c-7,0-12.7-5.7-12.7-12.7c0-7,5.7-12.7,12.7-12.7
			C1755.1,1439.3,1760.8,1445,1760.8,1451.9z"/>
	</g>
	<g>
		<path class="marker-red" d="M2029.9,1133h-0.1c-15,0-27.3,12.2-27.3,27.3c0,9.9,4.5,22.9,13.3,38.7c6.6,11.7,13.2,20.7,13.3,20.8
			c0.2,0.2,0.5,0.4,0.8,0.4c0,0,0,0,0,0c0.3,0,0.6-0.2,0.8-0.4c0.1-0.1,6.7-10.1,13.2-22.3c8.8-16.5,13.3-29,13.3-37.1
			C2057.2,1145.2,2045,1133,2029.9,1133z M2042.5,1160.9c0,7-5.7,12.7-12.7,12.7c-7,0-12.7-5.7-12.7-12.7c0-7,5.7-12.7,12.7-12.7
			C2036.8,1148.3,2042.5,1154,2042.5,1160.9z"/>
	</g>
	<g>
		<path class="marker-red" d="M2030.8,1396.2h-0.1c-15,0-27.3,12.2-27.3,27.3c0,9.9,4.5,22.9,13.3,38.7c6.6,11.7,13.2,20.7,13.3,20.8
			c0.2,0.2,0.5,0.4,0.8,0.4c0,0,0,0,0,0c0.3,0,0.6-0.2,0.8-0.4c0.1-0.1,6.7-10.1,13.2-22.3c8.8-16.5,13.3-29,13.3-37.1
			C2058.1,1408.4,2045.8,1396.2,2030.8,1396.2z M2043.4,1424.1c0,7-5.7,12.7-12.7,12.7c-7,0-12.7-5.7-12.7-12.7
			c0-7,5.7-12.7,12.7-12.7C2037.7,1411.5,2043.4,1417.1,2043.4,1424.1z"/>
	</g>

</svg>
